# xmcd
#
# Track frame offsets: 
#        150
#        33897
#        64254
#        96230
#        126576
#        152153
#        177695
#        201992
#        228824
#        257425
#        285117
#
# Disc length: 4221 seconds
#
# Revision: 0
# Processed by: cddbd v1.5.2PL0 Copyright (c) Steve Scherf et al.
# Submitted via: ExactAudioCopy v1.0b3
#
DISCID=97107b0b
DTITLE=Various Artist - The History Of House Nation Vol. 1 - CD 2
DYEAR=1900
DGENRE=
TTITLE0=Sylvio Ecomo - Uprising (Speedgarage Mix)
TTITLE1=Clubb Bastards - Shout (Beam and Yanou Rmx)
TTITLE2=DJ Mickey - Sonic Breaker (Club Mix)
TTITLE3=Intervalic DJ's - Mental Atmosphere (Club Mix)
TTITLE4=Aerosol - Your Woman (Red Box Mix)
TTITLE5=666 - D.E.V.I.L. (Break The Spell Mix)
TTITLE6=Ibiza United Vs. K.K. Project - Wait A Minute (Hands Up!) (Xtd
TTITLE6=Mix)
TTITLE7=Miss C. - Kiss! (Restyler Rmx)
TTITLE8=Groove Solution - Magic Melody 2000 (Club Rmx)
TTITLE9=Global Transmission - The Ultimate Seduction (Club Mix)
TTITLE10=Superbeat - Feel The Bass (Club Mix)
EXTD=
EXTT0=
EXTT1=
EXTT2=
EXTT3=
EXTT4=
EXTT5=
EXTT6=
EXTT7=
EXTT8=
EXTT9=
EXTT10=
PLAYORDER=
